<svg id="icono" xmlns="http://www.w3.org/2000/svg" viewBox="0 0 459.29 448"><defs><style>.cls-1{fill:#738a01;}</style></defs><title>icono</title><path class="cls-1" d="M447.71,73.42S375-7.34,202.19,41.93c0,0-155.87,43.83-178.48,208.07,0,0-31.5,144.85,98.53,224,0,0-80-94.49-23.42-147,0,0,53.3-33.92,102.56,84,0,0,4.85-104.19,59.77-112.26,0,0,51.69,2.42,80,79.14,0,0-16.15-138.1,55.73-143.75,0,0,56.53,10.5,37.15,109C434,343.17,526.85,155,447.71,73.42ZM193.45,329c-25.37,6.14-54.3-23.47-64.62-66.13s1.89-82.22,27.26-88.35,54.3,23.47,64.62,66.13S218.82,322.88,193.45,329Zm100.13-34c-26.07,1.17-48.83-33.93-50.83-78.39S260.27,135.2,286.34,134s48.84,33.93,50.84,78.39S319.66,293.87,293.58,295.05Z" transform="translate(-20.35 -26)"/></svg>
