<svg id="logo" xmlns="http://www.w3.org/2000/svg" viewBox="0 0 488.5 252.34"><defs><style>.cls-1,.cls-2{fill:#738a01;}.cls-2{font-size:133.74px;font-family:CooperBlack, Cooper Black;}.cls-3{letter-spacing:-0.09em;}.cls-4{letter-spacing:-0.01em;}.cls-5{fill:#fea021;}.cls-6{letter-spacing:-0.03em;}</style></defs><title>logo</title><path class="cls-1" d="M226.91,158.62s-37.62-41.79-127.06-16.3c0,0-80.66,22.69-92.36,107.68,0,0-16.3,75,51,115.92,0,0-41.38-48.9-12.13-76.07,0,0,27.59-17.55,53.08,43.47,0,0,2.51-53.91,30.93-58.09,0,0,26.75,1.25,41.38,41,0,0-8.36-71.47,28.84-74.4,0,0,29.25,5.43,19.22,56.42C219.8,298.21,267.86,200.83,226.91,158.62ZM95.33,290.89c-13.13,3.17-28.1-12.15-33.44-34.22s1-42.55,14.1-45.73,28.11,12.15,33.44,34.23S108.46,287.71,95.33,290.89Zm51.82-17.58c-13.5.61-25.28-17.55-26.31-40.56S129.9,190.59,143.4,190s25.27,17.56,26.31,40.57S160.64,272.7,147.15,273.31Z" transform="translate(-5.75 -134.08)"/><text class="cls-2" transform="translate(258.91 114.01)"><tspan class="cls-3">V</tspan><tspan class="cls-4" x="95.34" y="0">e</tspan><tspan x="165.41" y="0">t</tspan><tspan class="cls-5"><tspan class="cls-6" x="0" y="104.76">P</tspan><tspan class="cls-4" x="88.09" y="104.76">e</tspan><tspan x="158.17" y="104.76">t</tspan></tspan></text></svg>
